<svg xmlns="http://www.w3.org/2000/svg" version="1.1" viewBox="-31 0 512 512" width="512pt"><g><path fill="#33cc66" d="M 225 0 C 100.425781 0 0 102.859375 0 227 C 0 241.519531 0 332.386719 0 347 C 0 371.8125 20.1875 392 45 392 L 62.578125 392 C 68.773438 409.457031 85.445312 422 105 422 C 129.8125 422 150 401.8125 150 377 L 150 257 C 150 232.1875 129.8125 212 105 212 C 99.957031 212 95.109375 212.847656 90.578125 214.382812 C 96.875 144.734375 154.753906 90 225 90 C 295.246094 90 353.125 144.734375 359.421875 214.382812 C 354.890625 212.847656 350.042969 212 345 212 C 320.1875 212 300 232.1875 300 257 L 300 377 C 300 401.8125 320.1875 422 345 422 C 364.554688 422 381.226562 409.457031 387.421875 392 L 390 392 L 390 437 C 390 445.269531 383.269531 452 375 452 L 267.421875 452 C 261.226562 434.542969 244.554688 422 225 422 C 200.1875 422 180 442.1875 180 467 C 180 491.8125 200.1875 512 225 512 C 244.554688 512 261.226562 499.457031 267.421875 482 L 375 482 C 399.8125 482 420 461.8125 420 437 L 420 389.421875 C 437.460938 383.226562 450 366.554688 450 347 C 450 332.480469 450 241.613281 450 227 C 450 102.820312 349.539062 0 225 0 Z M 225 482 C 216.730469 482 210 475.269531 210 467 C 210 458.730469 216.730469 452 225 452 C 233.269531 452 240 458.730469 240 467 C 240 475.269531 233.269531 482 225 482 Z M 30 347 L 30 287 C 30 278.730469 36.730469 272 45 272 L 60 272 L 60 362 L 45 362 C 36.730469 362 30 355.269531 30 347 Z M 105 242 C 113.269531 242 120 248.730469 120 257 L 120 377 C 120 385.269531 113.269531 392 105 392 C 96.730469 392 90 385.269531 90 377 L 90 257 C 90 248.730469 96.730469 242 105 242 Z M 345 392 C 336.730469 392 330 385.269531 330 377 L 330 257 C 330 248.730469 336.730469 242 345 242 C 353.269531 242 360 248.730469 360 257 L 360 377 C 360 385.269531 353.269531 392 345 392 Z M 420 347 C 420 355.269531 413.269531 362 405 362 L 390 362 L 390 272 L 405 272 C 413.269531 272 420 278.730469 420 287 Z M 420 244.578125 C 415.304688 242.914062 410.257812 242 405 242 L 390 242 L 390 227 C 390 136.160156 316.527344 60 225 60 C 133.4375 60 60 136.199219 60 227 L 60 242 L 45 242 C 39.742188 242 34.695312 242.914062 30 244.578125 L 30 227 C 30 118.375 117.476562 30 225 30 C 332.523438 30 420 118.375 420 227 Z M 420 244.578125 " style=" stroke:none;fill-rule:nonzero;fill:#33cc66;fill-opacity:1;" /></g></svg>