<svg version="1.1" d="Capa_1" xmlns="http://www.w3.org/2000/svg" xmlns:xlink="http://www.w3.org/1999/xlink" x="0px" y="0px" viewBox="0 0 512 512" style="enable-background:new 0 0 512 512;" xml:space="preserve"><g><g><g><path fill="#33cc66" d="M266.667,85.874V10.667C266.667,4.771,261.896,0,256,0s-10.667,4.771-10.667,10.667v75.207C132.665,91.486,42.667,184.632,42.667,298.667C42.667,416.302,138.365,512,256,512s213.333-95.698,213.333-213.333C469.333,184.632,379.335,91.486,266.667,85.874z M184.704,120.546c-14.272,15.702-26.434,36.082-35.806,59.928c-12.618-2.997-24.297-6.553-34.868-10.608C133.439,148.493,157.491,131.479,184.704,120.546z M100.04,187.113c12.527,5.241,26.529,9.82,41.91,13.565c-7.444,24.49-12.126,51.809-13.452,80.978c-28.401-8.879-48.323-20.279-57.952-31.871C76.574,226.953,86.635,205.799,100.04,187.113z M64,298.667c0-8.212,0.691-16.251,1.697-24.195c14.846,11.786,36.258,21.756,62.454,29.332c0.432,31.566,4.803,61.164,12.322,87.665c-29.698-7.844-53.1-18.599-66.151-31.206C67.736,340.898,64,320.23,64,298.667z M91.125,396.548c15.966,7.639,35.448,13.909,57.232,18.81c9.447,24.477,21.784,45.406,36.348,61.43C145.396,460.994,112.594,432.566,91.125,396.548z M245.333,489.694c-28.871-5.186-54.383-31.188-71.839-69.518c22.361,3.579,46.5,5.708,71.839,6.182V489.694z M245.333,405.025c-28.615-0.587-56.133-3.391-80.816-8.138c-8.624-25.921-13.911-55.727-14.885-87.643c28.376,6.25,60.892,9.952,95.702,10.589V405.025z M245.333,298.493c-36.668-0.686-68.917-4.827-95.682-11.125c0.967-29.698,5.616-57.609,13.268-82.194c25.401,4.715,53.366,7.387,82.414,7.934V298.493z M245.333,191.78c-26.464-0.512-51.906-2.818-75.049-6.898c17.454-42.483,44.306-71.72,75.049-77.242V191.78z M397.965,169.859c-10.569,4.055-22.246,7.612-34.865,10.611c-9.372-23.844-21.534-44.223-35.805-59.924C354.507,131.478,378.556,148.488,397.965,169.859z M266.667,107.639c30.745,5.522,57.596,34.762,75.051,77.245c-23.143,4.081-48.59,6.383-75.051,6.896V107.639z M266.667,213.109c29.046-0.547,57.008-3.223,82.411-7.94c7.632,24.514,12.276,52.34,13.263,81.943c-26.902,6.406-59.223,10.667-95.674,11.376V213.109z M266.667,319.832c34.815-0.637,67.331-4.337,95.702-10.585c-0.974,31.914-6.262,61.721-14.885,87.641c-24.686,4.747-52.204,7.549-80.816,8.137V319.832z M266.667,489.694v-63.336c25.337-0.475,49.478-2.604,71.84-6.185C321.051,458.507,295.539,484.508,266.667,489.694z M327.296,476.788c14.564-16.025,26.902-36.954,36.349-61.434c21.784-4.902,41.27-11.172,57.233-18.811C399.41,432.564,366.605,460.994,327.296,476.788z M448,298.667c0,21.572-3.738,42.247-10.329,61.618c-13.049,12.596-36.456,23.344-66.143,31.184c7.518-26.501,11.889-56.096,12.322-87.663c26.198-7.577,47.609-17.548,62.454-29.337C447.31,282.414,448,290.453,448,298.667z M441.453,249.783c-9.522,11.313-29.572,22.651-57.961,31.568c-1.344-29.057-6.025-56.271-13.444-80.677c15.378-3.746,29.38-8.327,41.906-13.568C425.362,205.792,435.426,226.949,441.453,249.783z"/><path fill="#33cc66" d="M391.823,63.615c10.583,2.927,10.969,3.313,13.896,13.896c1.281,4.625,5.479,7.823,10.281,7.823c4.802,0,9-3.198,10.281-7.823c2.927-10.583,3.313-10.969,13.896-13.896c4.625-1.281,7.823-5.479,7.823-10.281c0-4.802-3.198-9-7.823-10.281c-10.583-2.927-10.969-3.313-13.896-13.896c-2.563-9.25-18-9.25-20.563,0c-2.927,10.583-3.313,10.969-13.896,13.896C387.198,44.333,384,48.531,384,53.333C384,58.135,387.198,62.333,391.823,63.615z"/><path fill="#33cc66" d="M56.177,469.719c-10.583-2.927-10.969-3.313-13.896-13.896c-2.563-9.25-18-9.25-20.563,0c-2.927,10.583-3.313,10.969-13.896,13.896C3.198,471,0,475.198,0,480c0,4.802,3.198,9,7.823,10.281c10.583,2.927,10.969,3.313,13.896,13.896C23,508.802,27.198,512,32,512s9-3.198,10.281-7.823c2.927-10.583,3.313-10.969,13.896-13.896C60.802,489,64,484.802,64,480C64,475.198,60.802,471,56.177,469.719z"/><path fill="#33cc66" d="M504.177,117.719c-1.448-0.396-2.302-0.698-2.396-0.625c-0.167-0.396-0.438-1.167-0.833-2.604c-2.563-9.25-18-9.25-20.563,0c-0.396,1.438-0.667,2.208-0.625,2.396c-0.396,0.167-1.167,0.438-2.604,0.833c-4.625,1.281-7.823,5.49-7.823,10.281s3.198,9,7.823,10.281c1.448,0.396,2.24,0.542,2.396,0.625c0.167,0.396,0.438,1.167,0.833,2.604c1.281,4.625,5.49,7.823,10.281,7.823s9-3.198,10.281-7.823c0.396-1.438,0.667-2.208,0.625-2.396c0.396-0.167,1.167-0.438,2.604-0.833C508.802,137,512,132.792,512,128S508.802,119,504.177,117.719z"/></g></g></g></svg>