<svg xmlns="http://www.w3.org/2000/svg" version="1.1" viewBox="0 0 511.99982 511" width="511pt"><g><path fill="#33cc66" d="M 25.605469 508.066406 L 58.855469 474.816406 L 80.066406 496.03125 C 85.726562 501.6875 94.816406 501.902344 100.738281 496.546875 L 312.882812 304.601562 L 324.007812 315.726562 C 329.859375 321.578125 339.363281 321.582031 345.21875 315.726562 L 387.640625 273.300781 C 388.730469 272.210938 389.617188 270.996094 390.300781 269.703125 C 416.222656 267.144531 440.902344 257.148438 461.285156 240.882812 L 472.492188 252.089844 C 478.347656 257.945312 487.84375 257.949219 493.703125 252.089844 C 499.558594 246.230469 499.558594 236.734375 493.703125 230.878906 L 482.507812 219.683594 C 524.792969 166.921875 521.742188 89.21875 472.488281 39.96875 C 423.441406 -9.078125 345.734375 -12.410156 292.78125 29.957031 L 281.582031 18.757812 C 275.726562 12.902344 266.226562 12.902344 260.371094 18.757812 C 254.511719 24.617188 254.511719 34.113281 260.371094 39.96875 L 271.574219 51.175781 C 255.308594 71.558594 245.3125 96.242188 242.757812 122.164062 C 241.441406 122.859375 240.226562 123.75 239.15625 124.820312 L 196.734375 167.242188 C 190.875 173.101562 190.875 182.597656 196.734375 188.453125 L 207.855469 199.578125 L 15.914062 411.722656 C 10.554688 417.652344 10.777344 426.742188 16.429688 432.394531 L 37.644531 453.605469 L 4.394531 486.855469 C -1.464844 492.714844 -1.464844 502.210938 4.394531 508.066406 C 10.25 513.925781 19.746094 513.925781 25.605469 508.066406 Z M 451.277344 61.183594 C 488.886719 98.792969 491.703125 157.550781 461.128906 198.304688 L 314.15625 51.332031 C 354.875 20.785156 413.640625 23.542969 451.277344 61.183594 Z M 439.902344 219.5 C 421.539062 233.203125 399.054688 240.59375 375.90625 240.351562 L 272.105469 136.554688 C 271.863281 113.402344 279.253906 90.917969 292.960938 72.5625 Z M 249.765625 156.636719 L 355.824219 262.695312 L 334.613281 283.910156 L 228.550781 177.847656 Z M 135.734375 424.425781 L 88.035156 376.726562 L 229.09375 220.816406 L 291.644531 283.363281 Z M 67.882812 398.996094 L 113.464844 444.578125 L 91.191406 464.726562 L 47.734375 421.269531 Z M 67.882812 398.996094 " style=" stroke:none;fill-rule:nonzero;fill:#33cc66;fill-opacity:1;" /><path fill="#33cc66" d="M 217.945312 273.300781 L 196.734375 294.515625 C 190.875 300.371094 190.875 309.867188 196.734375 315.726562 C 202.589844 321.582031 212.089844 321.582031 217.945312 315.726562 L 239.15625 294.515625 C 245.015625 288.65625 245.015625 279.160156 239.15625 273.300781 C 233.300781 267.445312 223.804688 267.445312 217.945312 273.300781 Z M 217.945312 273.300781 " style=" stroke:none;fill-rule:nonzero;fill:#33cc66;fill-opacity:1;" /></g></svg>